<?xml version="1.0" encoding="UTF-8"?>
<!DOCTYPE svg PUBLIC "-//W3C//DTD SVG 1.1//EN" "http://www.w3.org/Graphics/SVG/1.1/DTD/svg11.dtd">
<!-- Creator: CorelDRAW 2021 (64-Bit) -->
<svg xmlns="http://www.w3.org/2000/svg" xml:space="preserve" width="158.581mm" height="162.049mm" version="1.1" style="shape-rendering:geometricPrecision; text-rendering:geometricPrecision; image-rendering:optimizeQuality; fill-rule:evenodd; clip-rule:evenodd"
viewBox="0 0 15842.93 16189.39"
 xmlns:xlink="http://www.w3.org/1999/xlink"
 xmlns:xodm="http://www.corel.com/coreldraw/odm/2003">
 <defs>
  <style type="text/css">
   <![CDATA[
    .fil0 {fill:black}
    .fil2 {fill:black}
    .fil4 {fill:#06B006}
    .fil5 {fill:#D69E49}
    .fil1 {fill:#FFD900}
    .fil7 {fill:yellow}
    .fil8 {fill:white}
    .fil3 {fill:black;fill-rule:nonzero}
    .fil6 {fill:#663333;fill-rule:nonzero}
   ]]>
  </style>
 </defs>
 <g id="Layer_x0020_1">
  <metadata id="CorelCorpID_0Corel-Layer"/>
  <g id="_2192487078688">
   <path class="fil0" d="M7903.89 0c3384.4,1299.54 6101.92,3247.2 7939.05,6050.47 -356.4,3844.37 -1368.72,6987.47 -3131.67,9328.09 -3148.2,1045.96 -6338.74,1115.67 -9580.71,0 -1757.92,-2273 -2779.19,-5431.98 -3130.55,-9396.69 2177.1,-2911.08 4882.79,-4762.6 7903.89,-5981.88z"/>
   <path class="fil1" d="M7904.61 332.43c3245.41,1246.17 5851.32,3113.85 7613.01,5801.99 -341.76,3686.49 -1312.51,6700.51 -3003.06,8945.01 -3018.91,1003 -6078.42,1069.86 -9187.25,0 -1685.72,-2179.65 -2665.05,-5208.9 -3001.98,-9010.79 2087.7,-2791.53 4682.27,-4567.01 7579.29,-5736.22z"/>
   <polygon class="fil2" points="2606.63,11356.6 2756.3,11808.05 3243.49,11807.13 2848.79,12085.23 3000.24,12536.11 2606.63,12256.54 2213.03,12536.11 2364.48,12085.23 1969.77,11807.13 2456.97,11808.05 "/>
   <polygon class="fil2" points="13295.88,11356.6 13445.55,11808.05 13932.74,11807.13 13538.04,12085.23 13689.49,12536.11 13295.88,12256.54 12902.28,12536.11 13053.73,12085.23 12659.02,11807.13 13146.22,11808.05 "/>
   <path class="fil3" d="M2228.48 9088.27l-28.89 -157.13c53.94,-13.91 92.42,-36.21 115.81,-67.29 23.38,-31.08 33,-71.23 29.07,-120.48 -4.16,-52.06 -18.69,-90.47 -43.61,-115.06 -24.91,-24.58 -52.64,-35.74 -83.17,-33.3 -19.7,1.57 -35.89,8.51 -48.91,20.67 -12.84,12.14 -23.27,32.58 -31.11,61.09 -5.44,19.46 -13.99,63.49 -25.99,132.29 -15.51,88.51 -38.09,151.54 -67.94,189.18 -41.87,52.9 -95.76,81.89 -161.66,87.15 -42.32,3.39 -83.06,-5.05 -121.81,-25.13 -38.76,-20.28 -69.44,-51.38 -92.25,-93.46 -22.8,-42.09 -36.66,-93.76 -41.59,-155.55 -8.03,-100.56 8.91,-178.24 51.05,-232.67 42.12,-54.64 101.45,-86.13 178.34,-94.91l18.8 162.46c-42.34,10.35 -71.89,27.59 -88.82,51.75 -16.93,24.15 -23.68,58.99 -20.06,104.31 3.74,46.82 16.71,82.72 38.92,107.52 14.31,16.01 32.19,23.25 53.84,21.52 19.71,-1.58 35.89,-10.97 48.5,-28.18 16.34,-21.85 30.93,-72.95 43.97,-153.33 12.84,-80.36 28.27,-140.21 45.76,-179.49 17.66,-39.47 43.32,-71.29 77.37,-95.5 34.05,-24.21 77.26,-38.39 129.63,-42.58 47.54,-3.8 93.2,5.38 136.8,27.71 43.59,22.34 77.4,56.02 101.23,101.22 24.04,45.2 38.75,102.82 44.33,172.67 8.11,101.67 -9.81,181.7 -53.97,240.06 -43.97,58.35 -111.91,96.38 -203.62,114.44zm221.99 -815.27l-830.07 -67.87 48.69 -595.41 140.28 11.47 -35.37 432.51 184.32 15.08 32.89 -402.17 140.28 11.47 -32.89 402.17 224.91 18.39 36.65 -448.24 140.28 11.47 -49.97 611.14zm76.83 -750.37l-813.68 -177.58 34.86 -159.68 360.42 78.66 -290.21 -400.41 46.71 -214.01 251.94 366.67 565.11 -204.51 -44.95 205.93 -429.38 133.57 108 157.97 246.04 53.7 -34.86 159.68zm-191.38 -914.3c-78.29,-32.86 -139.27,-71.9 -183.01,-116.96 -32.11,-33.23 -57.56,-71.22 -76.4,-113.55 -18.81,-42.33 -28.43,-84.05 -29,-125.25 -0.73,-54.9 11.55,-112.7 37,-173.32 46.09,-109.82 118.1,-182.7 216.03,-219.21 98.08,-36.27 209.66,-28.14 334.97,24.46 124.23,52.14 207.73,125.69 250.4,220.41 42.85,94.78 41.17,196.97 -4.7,306.27 -46.47,110.69 -118.33,184.23 -215.62,220.2 -97.14,36.05 -207.04,28.42 -329.67,-23.04zm59.81 -157.04c87.05,36.54 161.24,44.65 222.65,24.58 61.21,-20.14 104.53,-60.23 129.69,-120.16 25.23,-60.11 23.53,-118.69 -4.77,-175.99 -28.55,-57.22 -87.35,-104.5 -176.54,-141.94 -88.12,-36.97 -161.76,-45.88 -220.8,-26.44 -59.14,19.18 -101.64,59.82 -127.74,122 -26.03,62.02 -25.05,121.3 2.83,177.62 28.05,56.4 86.2,103.21 174.68,140.35zm702.44 -514.25l-712.33 -417.88 82.69 -140.96 590.94 346.66 204.73 -349.03 121.4 71.22 -287.44 489.99zm831.72 -1136.22l-112.38 135.48 -190.42 -67.39 -206.64 249.13 103.12 172.66 -110.33 133.02 -440.99 -772.86 110.2 -132.88 847.44 282.83zm-444.96 19.01l-308.85 -110.46 167.71 280.65 141.14 -170.19zm518.17 -70.99l-548.21 -626.96 123.05 -107.59 215.91 246.93 239.28 -209.22 -215.92 -246.93 123.04 -107.59 548.2 626.96 -123.03 107.59 -239.66 -274.08 -239.27 209.22 239.65 274.08 -123.04 107.59zm879.76 -699.64l-403.78 -728.41 214.09 -118.68 401.9 426.66 -150.35 -566.1 214.57 -118.95 403.77 728.4 -132.09 73.22 -318.37 -573.15 178.71 650.57 -137.36 76.15 -456.38 -496.65 317.39 573.71 -132.1 73.23zm832.83 -438.52l-287.08 -781.79 560.78 -205.92 48.51 132.12 -407.36 149.58 63.75 173.61 378.79 -139.09 48.51 132.11 -378.78 139.1 77.78 211.82 422.18 -155.02 48.5 132.12 -575.59 211.36zm711.92 -241.69l-192.1 -810.37 153.91 -36.49 451.92 466.47 -128.74 -543.08 146.96 -34.84 192.1 810.37 -158.84 37.65 -444.52 -457.26 126.28 532.7 -146.97 34.84zm797.88 -161.34l-59.75 -830.68 595.86 -42.86 10.09 140.39 -432.83 31.13 13.27 184.46 402.47 -28.95 10.1 140.39 -402.48 28.95 16.19 225.07 448.57 -32.27 10.1 140.39 -611.59 43.99zm751.28 -48.89l58.44 -830.77 157.79 11.1 292.16 580.05 39.16 -556.75 150.67 10.6 -58.44 830.77 -162.84 -11.46 -287.84 -569.06 -38.41 546.12 -150.68 -10.6zm1243.09 -158.26l29.41 -137.63 342.82 73.27 -69.45 324.94c-40.44,26.45 -95.03,45.52 -163.88,57.55 -68.61,11.89 -135.45,10.9 -200.49,-3 -82.48,-17.63 -150.51,-50.81 -204.2,-99.75 -53.52,-48.91 -88.65,-110.13 -105.28,-183.27 -16.64,-73.14 -16.55,-149.05 0.18,-227.35 18.15,-84.93 51.54,-156.69 100.03,-215.51 48.63,-58.59 109.83,-98.65 183.69,-119.73 56.5,-16.27 122.2,-16.3 197.52,-0.21 97.92,20.93 169.99,58.54 216.02,112.78 45.82,54.39 68.74,120.55 68.5,199.01l-165.29 -3.22c-2.47,-42.36 -16.64,-78.49 -42.35,-108.37 -25.55,-29.65 -61.29,-49.38 -107.22,-59.2 -69.43,-14.85 -129.61,-3.91 -180.34,33.03 -50.72,36.93 -85.76,100.21 -104.93,189.89 -20.71,96.88 -15.47,173.92 15.72,231.14 31.36,57.26 80.55,93.14 147.97,107.55 33.26,7.11 68.14,7.43 104.46,1.12 36.5,-6.27 68.67,-16.64 96.88,-30.83l22.09 -103.33 -181.88 -38.87zm1103.14 675.42l-164.38 -62.93 2.69 -201.99 -302.28 -115.71 -130.43 153.08 -161.41 -61.78 590.38 -665.77 161.23 61.72 4.2 893.37zm-160.86 -415.29l5.46 -327.97 -211.96 248.92 206.49 79.04zm242.87 447.83l410.35 -724.73 142.22 80.53 -161.62 285.44 276.59 156.61 161.62 -285.44 142.23 80.53 -410.35 724.72 -142.23 -80.52 179.39 -316.82 -276.59 -156.61 -179.39 316.82 -142.22 -80.53zm957.94 592.37l538.35 -635.44 199.37 168.91c75.55,64 122.08,108.76 139.63,134.55 27.11,39.48 39.08,85.21 35.83,137.32 -3.29,52.11 -26.35,103.45 -69.21,154.03 -33.08,39.05 -67.65,65.92 -103.82,81 -36.32,14.97 -71.32,21.13 -105.32,18.51 -33.84,-2.76 -63.86,-10.91 -89.78,-24.5 -34.81,-19.06 -80.29,-52.27 -136.49,-99.87l-80.83 -68.48 -203.02 239.62 -124.7 -105.65zm572.08 -422.41l-153.38 181.05 67.8 57.43c48.87,41.41 84.29,65.58 106.41,72.89 22.13,7.3 43.79,7.87 65.28,1.42 21.34,-6.3 39.98,-18.72 56.02,-37.65 19.68,-23.22 29.25,-47.88 28.99,-74.03 -0.41,-26.25 -8.87,-49.68 -25.83,-70.66 -12.38,-15.31 -40.79,-41.92 -85.52,-79.81l-59.76 -50.63zm-1.65 912.95l617.31 -559.05 401.02 442.79 -104.32 94.48 -291.31 -321.64 -137.07 124.15 270.86 299.08 -104.32 94.48 -270.86 -299.09 -167.26 151.48 301.89 333.34 -104.31 94.48 -411.63 -454.49zm488.31 571.49l689.43 -467.24 192.56 284.12c48.37,71.38 77.31,127.56 86.88,168.28 9.67,40.88 5.19,81.59 -13.26,122.46 -18.6,40.96 -48.06,75.24 -88.83,102.86 -51.83,35.14 -104.43,49.44 -158.05,42.89 -53.63,-6.54 -104.53,-36.06 -152.98,-88.55 2.22,40.95 -0.81,77.95 -9.08,111 -8.16,33.23 -28.27,84.07 -60.16,152.42l-79.25 172.63 -109.29 -161.26 84.97 -198.75c29.94,-70.9 47.51,-117.53 52.73,-139.91 5.17,-22.1 5.62,-42.15 1.06,-59.94 -4.67,-17.94 -17.48,-42.38 -38.57,-73.48l-18.54 -27.37 -287.89 195.11 -91.7 -135.29zm489.37 -134.21l67.66 99.82c43.85,64.7 74.03,103.02 90.61,115.38 16.47,12.21 34.9,18.33 54.81,17.99 20.02,-0.17 40.42,-7.41 61.11,-21.44 23.28,-15.77 37.78,-34.46 44.1,-56.22 6.17,-21.65 3.68,-44.7 -7.39,-68.96 -5.87,-12.13 -27.31,-45.49 -64.3,-100.06l-71.35 -105.28 -175.24 118.77zm21.5 986.65l621.84 -303.79 -104.89 -214.71 126.46 -61.77 281.02 575.25 -126.45 61.77 -104.4 -213.69 -621.84 303.8 -71.74 -146.86zm386.96 1080.89l-49.27 -168.98 162.5 -120 -90.61 -310.73 -200.8 -11.32 -48.37 -165.91 887.25 67.68 48.33 165.74 -709.03 543.52zm233.52 -379.23l264.53 -193.95 -326.43 -18.31 61.9 212.27zm-210.53 462.15l826.03 -106.28 31.23 242.79 -544.92 215.95 581.61 69.3 31.31 243.34 -826.02 106.27 -19.27 -149.8 650.21 -84.22 -670.58 -74.16 -20.05 -155.77 630.08 -240.73 -650.35 83.11 -19.28 -149.81zm76.91 1663.43l1.95 -176.01 190.36 -67.6 3.59 -323.66 -188.85 -69.16 1.92 -172.81 829.32 322.54 -1.91 172.63 -836.37 314.07zm333.63 -295.03l309.46 -108.73 -307.02 -112.36 -2.45 221.09z"/>
   <path class="fil3" d="M3446.2 7995.52l5.85 -151.71c57.91,-0.4 102.03,-12.1 132.75,-35.4 30.73,-23.3 49.5,-58.13 56.55,-104.51 7.44,-49.02 1.28,-87.84 -18.53,-116.28 -19.81,-28.43 -45.5,-45.14 -77.07,-49.93 -20.4,-3.09 -38.38,-0.41 -54.34,7.81 -15.77,8.24 -30.94,24.7 -45.31,49.21 -9.89,16.71 -28.43,55.39 -56.07,116.13 -35.58,78.12 -72.65,131.1 -111.42,158.95 -54.42,39.18 -115.67,53.51 -183.82,43.17 -43.77,-6.64 -83.28,-23.83 -118.15,-51.3 -34.87,-27.66 -59.07,-63.45 -72.82,-107.56 -13.76,-44.12 -16.24,-95 -7.41,-153.18 14.37,-94.68 48.98,-162.47 104,-203.01 55.05,-40.71 122.39,-56.1 202.51,-46.47l-17.28 154.3c-45.35,-0.2 -79.24,8.9 -101.86,27.28 -22.64,18.4 -37.29,48.99 -43.77,91.67 -6.69,44.07 -1.55,80.21 15.47,108.23 10.96,18.07 27.51,28.88 49.89,32.28 20.39,3.1 38.92,-1.85 55.62,-14.83 21.5,-16.39 47.77,-60.21 79.03,-131.4 31.05,-71.22 60.16,-122.9 86.72,-155.12 26.79,-32.37 60,-55.83 100.02,-70.31 40.03,-14.49 87.12,-17.61 141.27,-9.4 49.17,7.46 93.52,26.45 132.81,57.14 39.3,30.68 66.12,69.56 80.21,116.8 14.29,47.25 16.33,103.84 6.34,169.61 -14.53,95.74 -50.66,165.47 -108.63,209.16 -57.74,43.73 -135.32,63.16 -232.58,58.67zm401.09 -702.07l-796.83 -345.23 92.38 -213.22 598.05 109.46 -489.51 -359.98 92.59 -213.71 796.83 345.22 -57.01 131.56 -627.51 -271.29 567.26 410.38 -59.26 136.8 -687.07 -133.83 627.09 272.27 -57.01 131.56zm374.56 -811.4l-729.64 -470.92 134.53 -208.42c50.96,-78.95 87.7,-128.05 110.47,-147.31 34.83,-29.73 78.53,-45.25 131.26,-46.45 52.74,-1.2 108.16,16.95 166.23,54.44 44.84,28.94 77.74,60.35 99.13,94.32 21.28,34.12 33.53,67.71 36.8,101.01 3.11,33.22 0.15,63.15 -8.95,89.53 -13.05,35.52 -38.39,82.61 -76.31,141.34l-54.54 84.51 275.13 177.58 -84.12 130.36zm-522.2 -521.69l207.88 134.17 45.75 -70.87c32.98,-51.09 51.02,-87.62 54.5,-109.78 3.49,-22.17 0.29,-43.33 -9.89,-63.7 -10.02,-20.27 -25.69,-37.37 -47.41,-51.4 -26.66,-17.21 -53.02,-24.47 -79.15,-22.01 -26.22,2.6 -48.21,12.82 -66.26,31.1 -13.19,13.35 -34.91,43.26 -65.09,90.01l-40.32 62.48zm1124.06 -265.09l-565.46 -659.07 188.27 -161.53c71.32,-61.19 120.5,-97.8 147.83,-109.78 41.84,-18.59 88.16,-21.03 139.06,-7.17 50.9,13.86 98.86,47.02 143.86,99.49 34.76,40.5 57.35,79.97 68.18,118.63 10.69,38.76 12.88,74.44 6.54,107.31 -6.47,32.73 -17.82,60.58 -34.06,83.28 -22.62,30.34 -60.31,68.27 -113.37,113.8l-76.34 65.49 213.23 248.53 -117.75 101.02zm-352.16 -648.72l161.12 187.78 64.03 -54.93c46.15,-39.59 73.84,-69.47 83.48,-89.73 9.65,-20.26 12.61,-41.45 8.64,-63.88 -3.84,-22.28 -13.99,-43.14 -30.83,-62.77 -20.66,-24.09 -43.86,-38.54 -69.61,-43.62 -25.87,-4.98 -49.86,-1.44 -72.37,10.95 -16.43,9.05 -45.77,31.54 -88.01,67.78l-56.45 48.42zm893.22 174.25l-422.2 -750.52 135.22 -76.07 350.24 622.6 334.79 -188.33 71.95 127.91 -470.01 264.41zm189.73 -1103.06l139.9 -67.08 203.47 424.32c32.34,67.45 55,110.15 67.9,128.4 21.33,29.23 47.73,48.4 79.18,57.09 31.71,8.78 66.73,3.87 105.32,-14.64 39.07,-18.73 64.3,-42.03 75.4,-70 11.12,-27.96 12.27,-56.1 3.44,-84.81 -8.83,-28.73 -27.97,-74.02 -57.69,-136l-207.83 -433.43 139.9 -67.08 197.44 411.75c45.1,94.05 73.3,162.35 84.36,204.8 11.05,42.45 12.96,81.88 5.54,118.39 -7.25,36.44 -24.13,70.53 -50.29,102.58 -26.32,32.13 -66.55,61.27 -121.05,87.41 -65.77,31.54 -119.72,46.88 -161.95,45.83 -42.23,-1.04 -79.84,-10.58 -112.89,-28.8 -33.07,-18.22 -59.75,-40.86 -80.61,-68.28 -30.66,-40.44 -66.99,-104.63 -109.02,-192.3l-200.5 -418.14zm981.12 230.39l141.9 -53.98c23.04,53.15 51.06,89.15 84.52,108.32 33.47,19.16 72.88,22.81 118.32,11.14 48.01,-12.33 81.32,-33.19 99.74,-62.55 18.42,-29.36 23.74,-59.52 15.79,-90.46 -5.14,-19.97 -14.64,-35.48 -28.44,-46.95 -13.76,-11.29 -34.85,-18.81 -63.02,-22.44 -19.26,-2.56 -62.1,-4.5 -128.81,-6.15 -85.82,-2.17 -149.08,-15.56 -189.88,-40.34 -57.36,-34.75 -94.5,-85.51 -111.65,-152.27 -11.01,-42.88 -10.66,-85.96 0.98,-128.81 11.82,-42.9 35.28,-79.18 70.49,-109.1 35.21,-29.92 81.07,-52.13 138.07,-66.77 92.74,-23.82 168.68,-18.49 227.51,16.27 59,34.73 99.51,90.69 121.99,168.19l-148.76 44.47c-17.55,-41.82 -39.19,-69.44 -64.97,-83.07 -25.79,-13.63 -59.68,-15.15 -101.49,-4.41 -43.17,11.09 -74.41,29.96 -93.53,56.58 -12.35,17.16 -15.82,36.62 -10.19,58.55 5.13,19.97 16.92,35.1 35.41,45.38 23.5,13.37 74.1,20.41 151.84,21.31 77.7,0.71 136.64,7.28 176.69,19.11 40.27,11.99 74.86,33.37 103.84,64.54 29,31.17 50.3,73.28 63.93,126.33 12.37,48.17 12.25,96.42 -0.6,144.58 -12.86,48.17 -38.15,88.06 -76.11,119.52 -37.9,31.64 -89.17,55.67 -153.6,72.21 -93.79,24.09 -172.1,18.11 -234.98,-18.12 -62.83,-36.04 -111.07,-99.82 -145,-191.08zm1752.57 86.53l-167.09 -1.65 -64.22 -198.33 -307.24 -3.03 -65.62 197.05 -164.05 -1.62 306 -865.42 163.88 1.62 298.33 871.38zm-280.13 -347.23l-103.3 -322.43 -106.59 320.36 209.89 2.07zm371.41 324.69l190.13 -839.88 151.33 34.26 -157.73 696.73 374.65 84.81 -32.41 143.14 -525.97 -119.07zm672.12 -90.94l39.75 -161.34 280.51 69.1 -39.74 161.34 -280.52 -69.1zm644.04 -478.98l282.34 118.96c56.05,23.61 96.53,43.73 121.77,60.51 25.33,17.03 45.19,38.34 59.89,64.06 14.64,25.91 23.37,55.69 26.13,89.54 2.78,33.85 -3.19,68.19 -17.7,102.65 -15.69,37.26 -39.09,67.98 -69.94,91.61 -30.94,23.82 -64.91,36.92 -101.9,39.76 36.84,32.42 59.52,70.48 68.25,114.52 8.56,43.97 3.12,89.04 -16.43,135.44 -15.38,36.51 -37.68,68.78 -67.16,96.95 -29.47,28.16 -61.47,47.15 -96.15,56.89 -34.44,9.62 -71.66,8.85 -111.65,-2.3 -24.85,-7.17 -82.99,-29.47 -174.17,-67.02l-240.44 -101.3 337.16 -800.27zm86.94 193.24l-77.7 184.42 93.35 39.33c55.39,23.33 90.28,36.94 104.55,40.75 25.66,7.07 48.88,5.67 69.53,-4.27 20.63,-9.95 36.25,-27.72 47.06,-53.43 10.45,-24.78 12.77,-47.26 7.28,-67.79 -5.48,-20.51 -19.47,-37.37 -41.8,-50.51 -13.36,-7.82 -53.55,-25.85 -120.44,-54.03l-81.84 -34.49zm-133.73 317.43l-90.4 214.59 132.13 55.67c51.27,21.61 84.68,33.71 99.82,36.36 23.07,4.47 44.82,1.12 65.27,-10.22 20.53,-11.53 36.75,-31.23 48.76,-59.73 10.2,-24.23 13.67,-46.68 10.37,-67.8 -3.12,-21.06 -12.9,-39.65 -29.06,-55.47 -16.18,-15.81 -56.78,-37.51 -121.68,-64.87l-115.21 -48.53zm410.39 601.04l437.77 -749.97 134 78.21 -437.78 749.98 -133.99 -78.22zm811.86 -542.7l220.96 175.42c49.86,39.58 84.46,74.02 103.66,103.45 25.77,39.55 39.33,84.4 40.46,134.32 1.38,49.89 -8.78,101.7 -30.21,155.66 -21.45,53.69 -57.5,112.56 -108.02,176.21 -44.51,56.05 -88.85,99.29 -133.31,130.07 -54.29,37.69 -107.47,60.78 -159.52,69.26 -39.42,6.64 -82.1,2.19 -128.02,-13.11 -34.35,-11.52 -73.74,-35.05 -118.43,-70.53l-227.52 -180.63 539.94 -680.13zm30.27 211.4l-357.45 450.26 90.08 71.52c33.66,26.71 59.72,43.8 78.06,51.39 24.1,10.1 47.83,13.46 71.24,10.36 23.56,-3 51.37,-16.52 83.6,-40.49 32.38,-23.85 69.48,-62.27 111.2,-114.83 41.73,-52.56 69.6,-95.99 83.74,-130.71 14.27,-34.61 20.16,-65.56 18.07,-93.02 -2.24,-27.32 -12.27,-52.84 -30.48,-76.34 -13.38,-17.57 -44.72,-46.08 -93.88,-85.11l-54.19 -43.03zm531.86 1429.41l-122.02 -114.15 86.73 -189.57 -224.38 -209.92 -181.55 100.87 -119.82 -112.08 810.48 -430.95 119.69 111.97 -369.14 843.82zm28.25 -445.24l141.82 -307.45 -295.1 164.04 153.27 143.4zm37.82 634.53l300.49 -208.02 253.65 -517.19 103.23 149.12 -179.59 344.69 383.1 -50.69 101.29 146.33 -574.37 56.01 -299.5 207.33 -88.31 -127.57zm530.6 966.33l-76.35 -148.64 145.62 -149.18 -140.39 -273.32 -204.93 33.7 -74.96 -145.94 908.36 -132.17 74.88 145.79 -632.23 669.76zm176.84 -409.59l237.26 -241.56 -333.15 54.85 95.89 186.71zm-189.08 504.55l842.91 -208.86 37.31 150.6 -331.98 82.26 72.57 292.88 331.98 -82.26 37.31 150.61 -842.9 208.85 -37.31 -150.61 368.48 -91.3 -72.57 -292.88 -368.49 91.3 -37.31 -150.59z"/>
   <path class="fil3" d="M4499.35 14323.2l267.34 -543.44 157.9 77.68 -89.02 416.55 274.56 -325.28 158.27 77.87 -267.34 543.44 -97.44 -47.93 210.1 -427.99 -313.1 377.32 -101.31 -49.84 108.31 -478.07 -210.83 427.64 -97.43 -47.93zm1099.51 476.41l-118.35 -44.82 1.98 -146.69 -217.62 -82.41 -93.91 111.86 -116.2 -44.01 425.16 -486.6 116.07 43.97 2.87 648.7zm-115.74 -300.7l3.99 -238.18 -152.64 181.88 148.66 56.31zm174.08 324.5l159.38 -584.29 109.7 29.92 123.55 454.39 106.81 -391.56 104.75 28.57 -159.38 584.3 -113.22 -30.89 -122.07 -445.95 -104.77 384.08 -104.75 -28.57zm696.18 -439.5l208.59 46.24c47.07,10.43 82.11,22.1 105.09,35.15 30.83,17.51 55.29,41.99 73.09,73.38 17.97,31.27 28.82,67.18 32.84,107.78 3.9,40.42 -0.25,88.46 -12.52,143.79 -10.8,48.72 -25.89,89.27 -45.28,121.93 -23.67,39.96 -51.55,70.3 -83.68,91.06 -24.27,15.84 -54.52,25.61 -90.63,29.43 -27.04,2.82 -61.59,-0.51 -103.77,-9.86l-214.78 -47.61 131.05 -591.28zm92.56 125.35l-86.77 391.44 85.04 18.85c31.79,7.04 55.15,10.21 70.08,9.62 19.66,-0.7 36.78,-5.56 51.48,-14.44 14.83,-8.85 28.93,-25.65 42.42,-50.38 13.65,-24.71 25.49,-60.05 35.63,-105.75 10.12,-45.7 14.06,-81.5 11.7,-107.73 -2.22,-26.18 -8.82,-47.58 -19.6,-64.42 -10.84,-16.69 -26.29,-29.93 -46.6,-39.48 -15,-7.22 -45.82,-16.08 -92.22,-26.37l-51.16 -11.34zm349.78 582.75l73.37 -601.17 426.3 52.02 -12.41 101.6 -309.67 -37.79 -16.28 133.5 287.95 35.14 -12.4 101.6 -287.95 -35.15 -19.88 162.88 320.94 39.17 -12.41 101.59 -437.56 -53.4zm751.63 -84.08l2.82 -115.86 218.72 5.31 -2.81 115.86 -218.73 -5.31zm870.28 -63.51l114.3 33.62c-15.8,67.08 -43.64,117.25 -83.34,150.65 -39.72,33.26 -90.63,50.71 -152.88,52.22 -77.08,1.88 -141.06,-24.08 -192.09,-77.83 -50.89,-53.76 -77.57,-128.29 -79.88,-223.7 -2.44,-100.76 20.64,-179.73 69.1,-236.75 48.46,-57.02 113.4,-86.52 194.68,-88.49 71,-1.73 129.2,18.85 174.54,61.62 27.09,25.28 47.7,62 62.12,110.31l-115.15 31.57c-7.64,-31.13 -22.55,-55.59 -44.74,-73.24 -22.31,-17.64 -48.98,-26.04 -80.04,-25.28 -43.06,1.04 -77.65,17.96 -103.59,50.89 -26.09,32.78 -38.18,85.25 -36.44,157.41 1.86,76.39 16.4,130.6 43.52,162.38 27.26,31.92 61.94,47.28 104.2,46.26 31.19,-0.75 57.81,-11.69 79.71,-32.95 21.91,-21.27 37.32,-54.07 45.97,-98.71zm214.78 204.4l-73.37 -601.18 116.64 -14.23 73.35 601.17 -116.62 14.24zm743.8 -108.13l-124.72 21.4 -72.7 -127.43 -229.34 39.35 -24.21 144.04 -122.46 21.01 119.62 -635.01 122.33 -20.98 331.48 557.62zm-252.26 -200.45l-117.36 -207.3 -39.31 234.18 156.67 -26.87zm313.3 186.84l-131.06 -591.29 111 -24.61 320.96 344.58 -87.84 -396.25 106 -23.5 131.07 591.28 -114.58 25.4 -315.72 -337.8 86.17 388.69 -106.01 23.5zm579.4 -778.61l111.74 -36.32 118.63 364.95c15.51,47.73 23.47,85.76 23.73,114.13 0.12,37.02 -10.65,70.32 -32.4,99.92 -21.69,29.43 -55.75,51.77 -102.23,66.88 -54.47,17.7 -101.48,15.5 -141.09,-6.77 -39.74,-22.21 -69.67,-64.07 -89.89,-125.39l101.4 -47.18c11.96,32.43 23.99,54.17 36.36,65.12 18.65,16.76 40.12,21.2 64.53,13.27 24.53,-7.97 39.6,-21.02 44.91,-39.19 5.35,-18.05 0.51,-50.42 -14.65,-97.09l-121.02 -372.32zm202.4 -67.79l109.88 -41.61 116.23 306.93c18.47,48.78 31.81,79.76 39.89,93.13 13.47,21.44 31.55,35.99 54.27,43.37 22.9,7.45 49.41,5.4 79.72,-6.07 30.69,-11.62 51.43,-27.02 62.05,-46.27 10.62,-19.24 13.82,-39 9.64,-59.57 -4.18,-20.57 -14.68,-53.23 -31.65,-98.06l-118.74 -313.52 109.88 -41.62 112.79 297.83c25.77,68.02 41.08,117.24 45.78,147.58 4.71,30.33 2.83,58.17 -5.74,83.58 -8.44,25.37 -23.88,48.68 -46.06,70.2 -22.31,21.57 -54.72,40.47 -97.53,56.69 -51.65,19.56 -93.16,28.18 -124.55,25.76 -31.4,-2.43 -58.61,-10.66 -81.75,-24.82 -23.12,-14.16 -41.11,-31.16 -54.38,-51.31 -19.47,-29.71 -41.19,-76.36 -65.21,-139.78l-114.54 -302.44zm757.39 348.1l-267.34 -543.44 221.4 -108.92c55.63,-27.36 98.54,-42.33 128.53,-45 30.12,-2.72 58.76,4.72 86.18,22.19 27.46,17.59 49.1,42.3 64.91,74.43 20.09,40.86 25.26,80.11 15.43,117.95 -9.84,37.82 -35.8,71.33 -77.95,100.7 29.45,2.65 55.58,8.65 78.39,18 22.94,9.3 57.31,29 103.05,58.97l115.65 74.76 -125.67 61.82 -133.73 -81.57c-47.75,-28.83 -79.36,-46.28 -94.83,-52.33 -15.3,-5.99 -29.57,-8.4 -42.72,-6.96 -13.26,1.5 -31.94,8.18 -56.18,20.11l-21.33 10.49 111.64 226.93 -105.43 51.86zm-48.78 -365.32l77.81 -38.27c50.41,-24.8 80.68,-42.52 91.09,-53.14 10.31,-10.57 16.45,-23.18 18.12,-37.51 1.81,-14.4 -1.4,-29.79 -9.43,-46.12 -9.02,-18.33 -20.97,-30.69 -35.9,-37.48 -14.87,-6.66 -31.57,-7.25 -49.96,-1.81 -9.23,2.97 -35.11,14.91 -77.64,35.84l-82.05 40.36 67.95 138.14z"/>
   <path class="fil4" d="M4100.84 7933.38c791.07,1497.56 2044.94,2661.24 3822.88,3453.92 1912.56,-898.57 2993.7,-2108.75 3825.08,-3524.41 11.26,1587.93 -762.25,2923.59 -3383.43,3665.39l317.2 211.47 -1568.36 0 387.69 -246.71c-3153.33,-849.96 -3139.06,-2227.82 -3401.05,-3559.65z"/>
   <path class="fil3" d="M4144.94 7910.16c392.8,743.6 900.56,1404.36 1530.82,1977.64 625.81,569.2 1372.52,1052.28 2247.45,1444.71 940.97,-444.59 1678.74,-965.37 2283.95,-1549.41 609.7,-588.37 1085.21,-1241.27 1498.7,-1945.39l91.39 -155.63 1.29 180.61c5.7,805.01 -187.98,1546.68 -716.05,2182 -512.03,615.99 -1337.67,1129.91 -2600.02,1501.63l227.79 151.86 137.26 91.51 -164.96 0 -1568.36 0 -171.16 0 144.42 -91.9 293.07 -186.5c-2827.66,-791.24 -3048.59,-2019.62 -3269.18,-3248.04 -18.43,-102.65 -36.86,-205.26 -59.49,-320.31l-65.52 -332.98 158.59 300.2zm1463.71 2051.39c-562.01,-511.19 -1027.95,-1091.09 -1403.04,-1736.45l3.7 20.59c217.78,1212.8 435.58,2425.6 3305.46,3199.15l109.24 29.45 -95.38 60.69 -243.28 154.81 1232.24 0 -179.93 -119.96 -90.07 -60.04 104.31 -29.52c1300.13,-367.94 2140.8,-881.67 2654.11,-1499.2 470.82,-566.43 666.99,-1222.16 690.68,-1933.93 -395.64,651.01 -849.83,1257.11 -1420.45,1807.77 -616.9,595.33 -1369.7,1125.61 -2331.45,1577.47l-20.57 9.67 -20.79 -9.28c-894,-398.58 -1656.38,-890.57 -2294.78,-1471.22z"/>
   <path class="fil5" d="M7603.95 11086.54l-52.86 -1585.98 -1251.17 -810.62c-186.02,-107.25 -324.99,-108.6 -422.92,-17.61l669.64 493.42c-286.94,200.45 -902.64,-195.77 -1565.61,-911.95 -94.88,-93.18 -226.15,-32.38 -140.97,123.36 513.05,787.75 1228.69,1445.92 2164.76,1951.63l-35.25 388.95 634.39 368.81z"/>
   <g>
    <path class="fil6" d="M7593.4 11068.88l-52.09 -1562.78 -1246.81 -807.81c-91.35,-52.6 -170.92,-79.23 -239.39,-81.54 -63.2,-2.14 -117.11,16.6 -162.29,54.86l659.71 486.09 11.18 8.24 -11.38 7.95c-143.17,100.01 -364.3,56.29 -630.6,-98.84 -278.09,-161.98 -606.73,-445.89 -947.68,-814.17l-0.01 0.01c-30.26,-29.72 -64.14,-42.7 -92.37,-41.09 -13.21,0.74 -25.16,4.76 -34.72,11.75 -9.44,6.9 -16.72,16.87 -20.76,29.62 -8.26,26.04 -3.42,63.52 22.4,110.84 258.49,396.85 568.58,760.8 932.46,1088.86 356.97,321.82 765.76,609.14 1228.48,859.13l5.77 3.13 -0.59 6.55 -34.68 382.61 613.36 356.58zm-32.36 -1568.63l52.86 1585.98 0.59 17.97 -15.54 -9.04 -634.39 -368.81 -5.49 -3.19 0.58 -6.33 34.66 -382.4c-461.79,-250.03 -869.97,-537.2 -1226.61,-858.73 -365.23,-329.27 -676.48,-694.64 -936,-1093.12l-0.39 -0.66c-28.89,-52.83 -33.95,-95.9 -24.16,-126.76 5.37,-16.96 15.21,-30.33 28.01,-39.69 12.7,-9.29 28.31,-14.61 45.41,-15.57 33.42,-1.9 72.9,12.87 107.44,46.79l0.31 0.35c339.69,366.95 666.85,649.69 943.41,810.77 252.07,146.83 461.07,192.22 597.5,107.48l-658.12 -484.93 -9.71 -7.14 8.81 -8.19c50.95,-47.33 112.55,-70.65 185.53,-68.18 71.86,2.42 154.68,30 249.14,84.47l0.47 0.27 1251.17 810.62 4.35 2.83 0.18 5.22zm-1266.54 -801.96l-0.01 0 0.01 0z"/>
   </g>
   <path class="fil7" d="M8358.72 4785.94c-298.37,402.37 -982.17,299.58 -978.02,1083.75 220.27,-493.43 1127.81,-537.47 978.02,-1083.75z"/>
   <path class="fil4" d="M8469.38 5107.54c-298.37,402.37 -982.17,299.58 -978.02,1083.75 220.27,-493.43 1127.81,-537.47 978.02,-1083.75z"/>
   <path class="fil3" d="M4741.12 12801.19l133.95 0c26.59,0 46.33,1.75 59.34,5.23 13.1,3.62 24.73,10.97 35.02,22.07 10.29,11.22 18.87,26.06 25.74,44.63 6.85,18.58 10.29,39.52 10.29,62.59 0,24.93 -4.22,47.99 -12.64,68.81 -8.41,20.94 -19.88,36.53 -34.31,46.99 20.35,9.6 35.95,25.82 46.95,48.75 10.91,22.94 16.37,49.86 16.37,80.9 0,24.44 -3.51,48.12 -10.61,71.19 -7.09,23.06 -16.76,41.51 -29.08,55.35 -12.24,13.72 -27.36,22.2 -45.39,25.44 -11.23,1.87 -38.43,3.12 -81.56,3.62l-114.07 0 0 -535.58zm67.84 89.01l0 123.42 44.29 0c26.28,0 42.66,-0.63 49.04,-1.87 11.55,-2.12 20.67,-8.48 27.29,-19.08 6.63,-10.59 9.91,-24.43 9.91,-41.64 0,-16.57 -2.89,-29.91 -8.58,-40.26 -5.69,-10.35 -14.19,-16.58 -25.42,-18.7 -6.71,-1.25 -25.97,-1.87 -57.7,-1.87l-38.83 0zm0 212.44l0 143.61 62.69 0c24.34,0 39.85,-1.12 46.4,-3.24 10.06,-3 18.24,-10.1 24.57,-21.44 6.31,-11.47 9.51,-26.55 9.51,-45.64 0,-16.2 -2.42,-29.79 -7.33,-41.01 -4.83,-11.22 -11.93,-19.45 -21.13,-24.57 -9.2,-5.11 -29.24,-7.72 -60.04,-7.72l-54.66 0zm270.03 234.13l0 -535.58 247.96 0 0 90.51 -180.13 0 0 118.93 167.49 0 0 90.51 -167.49 0 0 145.11 186.68 0 0 90.51 -254.52 0zm312.05 0l0 -535.58 65.66 0 137.86 358.92 0 -358.92 62.69 0 0 535.58 -67.76 0 -135.75 -352.06 0 352.06 -62.7 0zm337.88 -535.58l123.35 0c27.83,0 49.04,3.37 63.63,10.22 19.57,9.23 36.42,25.69 50.37,49.37 14.03,23.56 24.65,52.48 31.97,86.77 7.25,34.16 10.92,76.43 10.92,126.54 0,44.14 -3.44,82.03 -10.3,113.95 -8.34,39.02 -20.27,70.56 -35.79,94.62 -11.7,18.33 -27.52,32.54 -47.4,42.76 -14.9,7.61 -34.79,11.35 -59.73,11.35l-127.02 0 0 -535.58zm67.84 90.51l0 354.55 50.29 0c18.79,0 32.36,-1.74 40.7,-5.11 11,-4.37 20.04,-11.85 27.21,-22.32 7.25,-10.47 13.11,-27.67 17.62,-51.61 4.61,-23.94 6.86,-56.73 6.86,-98.12 0,-41.39 -2.26,-73.06 -6.86,-95.25 -4.52,-22.19 -10.92,-39.39 -19.1,-51.86 -8.19,-12.34 -18.56,-20.82 -31.19,-25.19 -9.36,-3.37 -27.83,-5.11 -55.29,-5.11l-30.25 0zm270.03 -90.51l67.84 0 0 290.23c0,46.13 0.86,75.92 2.5,89.5 2.88,21.95 9.67,39.65 20.43,52.86 10.84,13.35 25.58,19.95 44.29,19.95 18.94,0 33.3,-6.23 42.97,-18.82 9.66,-12.6 15.44,-27.92 17.38,-46.26 1.95,-18.32 2.97,-48.62 2.97,-91l0 -296.47 67.84 0 0 281.63c0,64.33 -1.8,109.82 -5.45,136.38 -3.68,26.55 -10.38,49 -20.2,67.33 -9.75,18.32 -22.85,32.79 -39.22,43.64 -16.45,10.84 -37.81,16.32 -64.25,16.32 -31.89,0 -56.07,-5.85 -72.52,-17.7 -16.45,-11.84 -29.47,-27.17 -39.06,-46.13 -9.59,-18.95 -15.83,-38.64 -18.87,-59.46 -4.45,-30.67 -6.62,-76.05 -6.62,-136.02l0 -285.99zm337.87 535.58l0 -535.58 65.66 0 137.86 358.92 0 -358.92 62.69 0 0 535.58 -67.77 0 -135.75 -352.06 0 352.06 -62.69 0zm493.66 -196.73l0 -90.5 145.51 0 0 213.68c-14.12,22.07 -34.63,41.39 -61.53,58.22 -26.82,16.7 -54.04,25.06 -81.63,25.06 -35.02,0 -65.5,-11.72 -91.54,-35.28 -25.98,-23.57 -45.55,-57.35 -58.64,-101.1 -13.1,-43.77 -19.65,-91.51 -19.65,-143 0,-55.85 7.33,-105.47 21.91,-148.98 14.67,-43.39 36.04,-76.8 64.18,-99.98 21.52,-17.82 48.18,-26.67 80.16,-26.67 41.56,0 74.07,13.96 97.47,41.88 23.31,28.05 38.36,66.58 45.07,115.95l-67.38 20.19c-4.68,-26.3 -13.57,-47.12 -26.58,-62.46 -12.94,-15.21 -29.16,-22.81 -48.65,-22.81 -29.48,0 -52.95,14.96 -70.34,45.01 -17.38,30.04 -26.11,74.55 -26.11,133.52 0,63.7 8.81,111.45 26.43,143.24 17.7,31.79 40.78,47.74 69.39,47.74 14.12,0 28.3,-4.49 42.5,-13.34 14.27,-8.85 26.43,-19.7 36.64,-32.42l0 -67.94 -77.2 0zm509.89 196.73l-73.07 0 -28.92 -121.92 -134.36 0 -27.83 121.92 -71.73 0 130.06 -535.58 71.66 0 134.2 535.58zm-123.99 -212.44l-46.55 -198.22 -45.23 198.22 91.77 0zm160.09 212.44l0 -535.58 65.66 0 137.86 358.92 0 -358.92 62.69 0 0 535.58 -67.76 0 -135.75 -352.06 0 352.06 -62.7 0zm459.9 -142.87l0 -102.47 126.32 0 0 102.47 -126.32 0zm292.8 142.87l0 -535.58 101.6 0 60.04 365.28 59.33 -365.28 101.83 0 0 535.58 -62.69 0 -0.23 -421.63 -66.05 421.63 -65.19 0 -65.74 -421.63 -0.23 421.63 -62.69 0zm390.66 -535.58l67.84 0 0 290.23c0,46.13 0.86,75.92 2.5,89.5 2.88,21.95 9.67,39.65 20.43,52.86 10.84,13.35 25.58,19.95 44.29,19.95 18.94,0 33.3,-6.23 42.97,-18.82 9.66,-12.6 15.44,-27.92 17.38,-46.26 1.95,-18.32 2.97,-48.62 2.97,-91l0 -296.47 67.84 0 0 281.63c0,64.33 -1.8,109.82 -5.45,136.38 -3.67,26.55 -10.38,49 -20.2,67.33 -9.74,18.32 -22.84,32.79 -39.22,43.64 -16.45,10.84 -37.81,16.32 -64.25,16.32 -31.89,0 -56.07,-5.85 -72.52,-17.7 -16.45,-11.84 -29.47,-27.17 -39.06,-46.13 -9.59,-18.95 -15.82,-38.64 -18.87,-59.46 -4.45,-30.67 -6.62,-76.05 -6.62,-136.02l0 -285.99zm339.73 535.58l0 -531.09 67.85 0 0 440.58 167.95 0 0 90.51 -235.79 0zm328.9 0l0 -225.4 -122.81 -310.17 79.3 0 79.21 212.06 77.13 -212.06 77.82 0 -122.81 310.92 0 224.65 -67.84 0zm482.9 0l-73.07 0 -28.92 -121.92 -134.35 0 -27.83 121.92 -71.74 0 130.07 -535.58 71.66 0 134.19 535.58zm-123.98 -212.44l-46.56 -198.22 -45.23 198.22 91.78 0zm142.3 38.89l65.97 -10.47c3.98,35.29 11.93,61.09 24.02,77.68 12.09,16.57 28.38,24.81 48.89,24.81 21.67,0 38.05,-7.35 49.04,-22.07 11,-14.71 16.53,-31.91 16.53,-51.61 0,-12.72 -2.34,-23.44 -6.94,-32.42 -4.6,-8.85 -12.71,-16.57 -24.25,-23.06 -7.88,-4.49 -25.82,-12.22 -53.88,-23.44 -36.11,-14.47 -61.45,-32.17 -76.03,-53.24 -20.51,-29.54 -30.73,-65.58 -30.73,-108.09 0,-27.3 4.85,-52.98 14.44,-76.8 9.66,-23.81 23.54,-41.89 41.71,-54.36 18.16,-12.46 40,-18.69 65.74,-18.69 41.87,0 73.45,14.84 94.58,44.63 21.21,29.79 32.29,69.44 33.37,119.19l-67.83 3.74c-2.89,-27.67 -9.05,-47.49 -18.49,-59.59 -9.43,-12.09 -23.62,-18.2 -42.49,-18.2 -19.49,0 -34.78,6.48 -45.78,19.45 -7.09,8.35 -10.68,19.45 -10.68,33.41 0,12.72 3.36,23.57 10.06,32.54 8.5,11.6 29.16,23.57 61.99,36.04 32.83,12.34 57.08,25.31 72.75,38.52 15.75,13.34 28.07,31.41 36.96,54.48 8.88,23.07 13.33,51.49 13.33,85.27 0,30.67 -5.3,59.47 -15.98,86.28 -10.68,26.8 -25.74,46.75 -45.23,59.71 -19.49,13.09 -43.82,19.57 -72.91,19.57 -42.34,0 -74.85,-15.59 -97.55,-46.88 -22.69,-31.16 -36.18,-76.67 -40.62,-136.39zm631.6 173.54l-73.06 0 -28.92 -121.92 -134.36 0 -27.83 121.92 -71.74 0 130.07 -535.58 71.66 0 134.19 535.58zm-123.98 -212.44l-46.55 -198.22 -45.23 198.22 91.77 0zm160.09 212.44l0 -535.58 142.46 0c35.79,0 61.83,4.87 78.06,14.46 16.29,9.6 29.23,26.68 38.98,51.24 9.75,24.69 14.66,52.74 14.66,84.4 0,40.27 -7.32,73.43 -22.06,99.61 -14.75,26.18 -36.73,42.64 -66.05,49.49 14.59,13.59 26.59,28.55 36.03,44.89 9.51,16.32 22.3,45.38 38.36,87.02l40.86 104.47 -80.86 0 -48.5 -116.94c-17.38,-41.52 -29.31,-67.7 -35.79,-78.54 -6.39,-10.72 -13.18,-18.2 -20.35,-22.19 -7.25,-3.99 -18.64,-5.98 -34.24,-5.98l-13.73 0 0 223.66 -67.84 0zm67.84 -308.93l50.07 0c32.43,0 52.63,-2.24 60.74,-6.6 8.02,-4.37 14.42,-11.97 18.94,-22.69 4.6,-10.72 6.86,-24.19 6.86,-40.27 0,-18.07 -3.04,-32.54 -9.04,-43.76 -6,-11.09 -14.51,-18.07 -25.43,-20.94 -5.53,-1.25 -21.99,-1.87 -49.36,-1.87l-52.79 0 0 136.13zm267.69 308.93l0 -535.58 67.85 0 0 535.58 -67.85 0z"/>
   <path class="fil0" d="M7922.52 9295.45l-1.95 -2.01 0 -1c-151.77,-206.34 -429.78,-314.49 -790.69,-358.16l17.62 -229.08c-341.82,-253.92 -1211.58,-312.32 -1716.44,-144.37l-204.37 -2003.32c930.19,-434.56 1859.14,-353.07 2695.83,195.86l0 2542.08z"/>
   <path class="fil8" d="M5587.94 8381.65l-158.6 -1691.72c716.71,-337.76 1444.92,-320.12 2185.13,70.49l143.92 69.09 -2.94 318.59 -17.62 1674.09c-638.29,-402.17 -1350.08,-567.04 -2149.89,-440.55z"/>
   <path class="fil3" d="M5693.12 6825.42c344.34,-139.77 670.19,-182.06 981.31,-147.05 310.89,34.98 606.6,147.08 891.06,316.11l-25.38 42.92c-278.66,-165.59 -567.84,-275.35 -871.14,-309.47 -303.07,-34.1 -620.86,7.24 -957.11,143.73l-18.74 -46.24z"/>
   <path class="fil3" d="M5693.12 7041.7c344.34,-139.77 670.19,-182.06 981.31,-147.05 310.89,34.98 606.6,147.08 891.06,316.11l-25.38 42.92c-278.66,-165.59 -567.84,-275.35 -871.14,-309.47 -303.07,-34.1 -620.86,7.24 -957.11,143.73l-18.74 -46.24z"/>
   <path class="fil3" d="M5693.12 7259.78c344.83,-139.97 670.16,-169.77 980.63,-122.17 309.76,47.47 604.3,171.96 888.43,340.79l-25.38 42.92c-278.99,-165.78 -567.68,-287.93 -870.47,-334.34 -302.05,-46.31 -618.69,-17.26 -954.48,119.04l-18.74 -46.24z"/>
   <path class="fil3" d="M5693.12 7499.57c344.77,-139.95 677.11,-169.75 994.58,-122.17 316.81,47.46 618.43,171.96 902.57,340.79l-25.38 42.92c-278.97,-165.77 -574.63,-287.92 -884.4,-334.34 -309.12,-46.33 -632.78,-17.28 -968.62,119.04l-18.74 -46.24z"/>
   <path class="fil3" d="M5693.12 7742.89c344.93,-140.01 679.53,-163.54 999.19,-109.67 318.76,53.71 622.27,184.36 906.21,353.09l-25.38 42.92c-279.18,-165.9 -577.08,-294.28 -889.03,-346.84 -311.03,-52.42 -636.59,-29.51 -972.26,106.74l-18.74 -46.24z"/>
   <path class="fil3" d="M5693.12 7983.27c345,-140.04 679.67,-160.22 999.48,-102.97 318.74,57.05 622.13,190.97 905.91,359.6l-25.38 42.92c-279.34,-165.99 -577.36,-297.7 -889.31,-353.54 -310.91,-55.66 -636.36,-36 -971.97,100.23l-18.74 -46.24z"/>
   <path class="fil3" d="M5693.12 8163.94c345.55,-140.26 679.7,-147.53 998.81,-77.27 317.53,69.89 619.73,216.61 903.29,385.1l-25.38 42.92c-279.55,-166.11 -577.09,-310.66 -888.65,-379.25 -309.94,-68.23 -634.28,-61.27 -969.34,74.73l-18.74 -46.24z"/>
   <path class="fil0" d="M7920.93 9295.45l1.95 -2.01 0 -1c151.77,-206.34 429.78,-314.49 790.69,-358.16l-17.62 -229.08c341.82,-253.92 1211.58,-312.32 1716.44,-144.37l204.37 -2003.32c-930.19,-434.56 -1859.14,-353.07 -2695.83,195.86l0 2542.08z"/>
   <path class="fil8" d="M10255.52 8381.65l158.6 -1691.72c-716.71,-337.76 -1444.92,-320.12 -2185.13,70.49l-143.92 69.09 2.94 318.59 17.62 1674.09c638.29,-402.17 1350.08,-567.04 2149.89,-440.55z"/>
   <path class="fil3" d="M10150.34 6825.42c-344.34,-139.77 -670.19,-182.06 -981.31,-147.05 -310.89,34.98 -606.6,147.08 -891.06,316.11l25.38 42.92c278.66,-165.59 567.84,-275.35 871.14,-309.47 303.07,-34.1 620.86,7.24 957.11,143.73l18.74 -46.24z"/>
   <path class="fil3" d="M10150.34 7041.7c-344.34,-139.77 -670.19,-182.06 -981.31,-147.05 -310.89,34.98 -606.6,147.08 -891.06,316.11l25.38 42.92c278.66,-165.59 567.84,-275.35 871.14,-309.47 303.07,-34.1 620.86,7.24 957.11,143.73l18.74 -46.24z"/>
   <path class="fil3" d="M10150.34 7259.78c-344.83,-139.97 -670.16,-169.77 -980.63,-122.17 -309.76,47.47 -604.3,171.96 -888.43,340.79l25.38 42.92c278.99,-165.78 567.68,-287.93 870.47,-334.34 302.05,-46.31 618.69,-17.26 954.48,119.04l18.74 -46.24z"/>
   <path class="fil3" d="M10150.34 7499.57c-344.77,-139.95 -677.11,-169.75 -994.58,-122.17 -316.81,47.46 -618.43,171.96 -902.57,340.79l25.38 42.92c278.97,-165.77 574.63,-287.92 884.4,-334.34 309.12,-46.33 632.78,-17.28 968.62,119.04l18.74 -46.24z"/>
   <path class="fil3" d="M10150.34 7742.89c-344.93,-140.01 -679.53,-163.54 -999.19,-109.67 -318.76,53.71 -622.27,184.36 -906.21,353.09l25.38 42.92c279.18,-165.9 577.08,-294.28 889.03,-346.84 311.03,-52.42 636.59,-29.51 972.26,106.74l18.74 -46.24z"/>
   <path class="fil3" d="M10150.34 7983.27c-345,-140.04 -679.67,-160.22 -999.48,-102.97 -318.74,57.05 -622.13,190.97 -905.91,359.6l25.38 42.92c279.34,-165.99 577.36,-297.7 889.31,-353.54 310.91,-55.66 636.36,-36 971.97,100.23l18.74 -46.24z"/>
   <path class="fil3" d="M10150.34 8163.94c-345.55,-140.26 -679.7,-147.53 -998.81,-77.27 -317.53,69.89 -619.73,216.61 -903.29,385.1l25.38 42.92c279.55,-166.11 577.09,-310.66 888.65,-379.25 309.94,-68.23 634.28,-61.27 969.34,74.73l18.74 -46.24z"/>
   <path class="fil5" d="M8242.25 11086.54l52.86 -1585.98 1251.17 -810.62c186.02,-107.25 324.99,-108.6 422.92,-17.61l-669.64 493.42c286.94,200.45 902.64,-195.77 1565.61,-911.95 94.88,-93.18 226.15,-32.38 140.97,123.36 -513.05,787.75 -1228.69,1445.92 -2164.76,1951.63l35.25 388.95 -634.39 368.81z"/>
   <g>
    <path class="fil6" d="M8232.29 11086.23l52.86 -1585.98 0.17 -5.22 4.36 -2.83 1251.17 -810.62 0.47 -0.27c94.45,-54.46 177.28,-82.05 249.14,-84.47 72.98,-2.47 134.59,20.85 185.53,68.18l8.8 8.19 -9.7 7.14 -658.12 484.93c136.43,84.74 345.43,39.35 597.5,-107.48 276.56,-161.09 603.71,-443.82 943.41,-810.77l0.31 -0.35c34.54,-33.92 74.02,-48.68 107.44,-46.79 17.09,0.96 32.71,6.27 45.41,15.57 12.82,9.37 22.64,22.73 28.01,39.69 9.79,30.86 4.74,73.93 -24.16,126.76l-0.39 0.66c-259.52,398.48 -570.77,763.85 -936,1093.12 -356.64,321.53 -764.82,608.7 -1226.61,858.73l34.66 382.4 0.57 6.33 -5.48 3.19 -634.39 368.81 -15.55 9.04 0.6 -17.97zm72.59 -1580.14l-52.09 1562.78 613.36 -356.58 -34.68 -382.61 -0.6 -6.55 5.78 -3.13c462.73,-249.99 871.52,-537.31 1228.48,-859.13 363.88,-328.06 673.96,-692.01 932.46,-1088.86 25.82,-47.32 30.66,-84.81 22.4,-110.84 -4.04,-12.75 -11.32,-22.72 -20.76,-29.62 -9.56,-7 -21.51,-11.01 -34.72,-11.75 -28.23,-1.61 -62.11,11.37 -92.37,41.09l-0.01 -0.01c-340.95,368.28 -669.59,652.19 -947.68,814.17 -266.29,155.12 -487.42,198.85 -630.6,98.84l-11.39 -7.95 11.19 -8.24 659.71 -486.09c-45.19,-38.25 -99.1,-57 -162.29,-54.86 -68.46,2.31 -148.04,28.94 -239.39,81.54l-1246.81 807.81zm1246.82 -807.81l-0.01 0 0.01 0z"/>
   </g>
  </g>
 </g>
</svg>
